<?xml version="1.0" ?><svg viewBox="0 0 314.14 288.42" xmlns="http://www.w3.org/2000/svg"><defs><style>.cls-1{fill:#020203;opacity:0.15;}.cls-2{fill:#0094da;}.cls-3{fill:#fff;}.cls-4{fill:#fbbd00;}.cls-5{fill:#139334;}.cls-6{fill:#e2000f;}.cls-7,.cls-8{fill:none;stroke:#fff;stroke-miterlimit:10;}.cls-7{stroke-width:7.25px;}.cls-8{stroke-width:7.36px;}</style></defs><title/><g data-name="Capa 2" id="Capa_2"><g data-name="Capa 1" id="Capa_1-2"><polyline class="cls-1" points="126.5 262.17 0 202.56 126.31 156.86 288.37 233.72 138.21 258.75"/><polygon class="cls-2" points="126.31 55.11 126.5 260.99 272.91 219.55 269.31 0 126.31 55.11"/><polygon class="cls-3" points="138.21 61.67 138.65 267.15 282.74 228.77 275.43 15.94 138.21 61.67"/><polygon class="cls-4" points="158.78 71.02 158.46 278.57 302.76 234.62 303.93 21.62 158.78 71.02"/><polygon class="cls-5" points="168.67 75.7 167.71 288.42 314.14 247.25 314.14 28.81 168.67 75.7"/><polygon class="cls-6" points="158.78 71.02 288.3 26.94 148.09 65.69 148.09 272.6 158.47 270.12 158.78 71.02"/><line class="cls-7" x1="189.85" x2="296.35" y1="107.79" y2="75.77"/><line class="cls-7" x1="189.86" x2="296.36" y1="128.28" y2="96.27"/><line class="cls-7" x1="192.12" x2="298.62" y1="146.5" y2="114.48"/><line class="cls-8" x1="192.11" x2="298.61" y1="166.84" y2="133.8"/><line class="cls-8" x1="188.9" x2="295.4" y1="187.75" y2="154.71"/><line class="cls-8" x1="187.86" x2="294.36" y1="210.67" y2="177.63"/><line class="cls-8" x1="188.99" x2="250.42" y1="231.59" y2="212.53"/></g></g></svg>